<svg width="200" height="200" viewBox="0 0 200 200" fill="none" xmlns="http://www.w3.org/2000/svg">
<circle cx="102.578" cy="74.4127" r="26.129" fill="#A2BD30"/>
<mask id="path-2-outside-1_347_3" maskUnits="userSpaceOnUse" x="60.9344" y="48.9258" width="79" height="47" fill="black">
<rect fill="white" x="60.9344" y="48.9258" width="79" height="47"/>
<path d="M135.644 71.0294L135.159 51.9258L136.81 57.603C138.293 63.3546 138.27 65.2763 136.81 71.0294H135.644Z"/>
</mask>
<path d="M135.644 71.0294L135.159 51.9258L136.81 57.603C138.293 63.3546 138.27 65.2763 136.81 71.0294H135.644Z" fill="#2D6434"/>
<path d="M64.509 93.6917C64.509 94.244 64.9567 94.6917 65.509 94.6917C66.0612 94.6917 66.509 94.244 66.509 93.6917H64.509ZM68.9752 63.4486L69.4386 64.3348C69.7685 64.1623 69.9752 63.8208 69.9752 63.4486H68.9752ZM69.9752 55.0477C69.9752 54.4954 69.5275 54.0477 68.9752 54.0477C68.4229 54.0477 67.9752 54.4954 67.9752 55.0477H69.9752ZM66.509 55.0477C66.509 54.4954 66.0612 54.0477 65.509 54.0477C64.9567 54.0477 64.509 54.4954 64.509 55.0477H66.509ZM61.9344 63.4486H60.9344C60.9344 63.8253 61.1461 64.1701 61.4821 64.3405L61.9344 63.4486ZM62.9344 55.0477C62.9344 54.4954 62.4866 54.0477 61.9344 54.0477C61.3821 54.0477 60.9344 54.4954 60.9344 55.0477H62.9344ZM135.094 93.6338C135.105 94.186 135.561 94.6247 136.113 94.6137C136.665 94.6027 137.104 94.1462 137.093 93.594L135.094 93.6338ZM136.644 71.0095C136.633 70.4573 136.177 70.0186 135.624 70.0296C135.072 70.0405 134.634 70.4971 134.645 71.0492L136.644 71.0095ZM134.159 94.0319C134.17 94.5841 134.627 95.0228 135.179 95.0118C135.731 95.0008 136.17 94.5443 136.159 93.9921L134.159 94.0319ZM135.71 71.4076C135.699 70.8554 135.242 70.4167 134.69 70.4277C134.138 70.4387 133.699 70.8952 133.71 71.4474L135.71 71.4076ZM66.509 93.6917V65.2614H64.509V93.6917H66.509ZM65.9724 66.1475L69.4386 64.3348L68.5118 62.5625L65.0455 64.3752L65.9724 66.1475ZM69.9752 63.4486V55.0477H67.9752V63.4486H69.9752ZM66.509 65.2614V55.0477H64.509V65.2614H66.509ZM65.9612 64.3695L62.3867 62.5567L61.4821 64.3405L65.0567 66.1532L65.9612 64.3695ZM62.9344 63.4486V55.0477H60.9344V63.4486H62.9344ZM137.093 93.594L136.644 71.0095L134.645 71.0492L135.094 93.6338L137.093 93.594ZM136.159 93.9921L135.71 71.4076L133.71 71.4474L134.159 94.0319L136.159 93.9921ZM135.159 51.9258L137.08 51.3674C136.799 50.4021 135.845 49.7952 134.852 49.9496C133.859 50.1039 133.134 50.9717 133.16 51.9766L135.159 51.9258ZM135.644 71.0294L133.645 71.0801C133.672 72.1646 134.56 73.0294 135.644 73.0294V71.0294ZM136.81 71.0294V73.0294C137.725 73.0294 138.523 72.4083 138.748 71.5212L136.81 71.0294ZM136.81 57.603L138.747 57.1035C138.741 57.0838 138.736 57.0641 138.73 57.0446L136.81 57.603ZM137.644 70.9786L137.159 51.8751L133.16 51.9766L133.645 71.0801L137.644 70.9786ZM135.644 73.0294H136.81V69.0294H135.644V73.0294ZM138.748 71.5212C139.485 68.6204 139.91 66.4996 139.914 64.3187C139.917 62.1344 139.497 60.0124 138.747 57.1035L134.873 58.1025C135.606 60.9453 135.916 62.6599 135.914 64.3125C135.911 65.9687 135.595 67.6852 134.871 70.5375L138.748 71.5212ZM138.73 57.0446L137.08 51.3674L133.239 52.4843L134.889 58.1614L138.73 57.0446Z" fill="#2D6434" mask="url(#path-2-outside-1_347_3)"/>
<path d="M119.115 74.2951C119.115 79.0213 117.143 83.2828 113.97 86.3094C111.97 88.2179 109.497 89.6294 106.749 90.3522C105.399 90.7071 103.98 90.8968 102.513 90.8968C93.3438 90.8968 85.911 83.464 85.911 74.2951C85.911 69.92 87.6 65.945 90.3663 62.9776C92.5133 60.6745 95.3032 58.9857 98.4445 58.1948C99.7437 57.8677 101.106 57.6933 102.513 57.6933C111.682 57.6933 119.115 65.1262 119.115 74.2951Z" stroke="#2F6433" stroke-width="5" stroke-linecap="round" stroke-linejoin="round"/>
<path d="M36.549 114.435V130.435H34.674L25.9552 117.872H25.799V130.435H23.8615V114.435H25.7365L34.4865 127.029H34.6427V114.435H36.549ZM41.0822 130.435H39.051L44.926 114.435H46.926L52.801 130.435H50.7697L45.9885 116.966H45.8635L41.0822 130.435ZM41.8322 124.185H50.0197V125.904H41.8322V124.185ZM52.549 116.154V114.435H64.549V116.154H59.5178V130.435H57.5803V116.154H52.549ZM78.0392 114.435H79.9767V125.029C79.9767 126.122 79.7189 127.099 79.2033 127.958C78.6929 128.812 77.9715 129.487 77.0392 129.982C76.1069 130.471 75.0132 130.716 73.758 130.716C72.5028 130.716 71.409 130.471 70.4767 129.982C69.5444 129.487 68.8205 128.812 68.3049 127.958C67.7944 127.099 67.5392 126.122 67.5392 125.029V114.435H69.4767V124.872C69.4767 125.654 69.6486 126.349 69.9924 126.958C70.3361 127.562 70.8257 128.039 71.4611 128.388C72.1017 128.732 72.8674 128.904 73.758 128.904C74.6486 128.904 75.4142 128.732 76.0549 128.388C76.6955 128.039 77.1851 127.562 77.5236 126.958C77.8674 126.349 78.0392 125.654 78.0392 124.872V114.435ZM83.8459 130.435V114.435H89.2521C90.5021 114.435 91.5282 114.648 92.3302 115.075C93.1323 115.497 93.7261 116.078 94.1115 116.818C94.4969 117.557 94.6896 118.398 94.6896 119.341C94.6896 120.284 94.4969 121.12 94.1115 121.849C93.7261 122.578 93.1349 123.151 92.3381 123.568C91.5412 123.979 90.523 124.185 89.2834 124.185H84.9084V122.435H89.2209C90.075 122.435 90.7625 122.31 91.2834 122.06C91.8094 121.81 92.1896 121.456 92.424 120.997C92.6636 120.534 92.7834 119.982 92.7834 119.341C92.7834 118.7 92.6636 118.141 92.424 117.661C92.1844 117.182 91.8016 116.812 91.2756 116.552C90.7495 116.286 90.0542 116.154 89.1896 116.154H85.7834V130.435H83.8459ZM91.3771 123.247L95.3146 130.435H93.0646L89.1896 123.247H91.3771ZM97.9181 130.435V114.435H107.574V116.154H99.8556V121.56H107.074V123.279H99.8556V128.716H107.699V130.435H97.9181ZM117.254 130.435V114.435H126.848V116.154H119.192V121.56H126.129V123.279H119.192V130.435H117.254ZM143.666 122.435C143.666 124.122 143.362 125.581 142.752 126.81C142.143 128.039 141.307 128.987 140.244 129.654C139.182 130.32 137.968 130.654 136.604 130.654C135.239 130.654 134.026 130.32 132.963 129.654C131.901 128.987 131.065 128.039 130.455 126.81C129.846 125.581 129.541 124.122 129.541 122.435C129.541 120.747 129.846 119.289 130.455 118.06C131.065 116.831 131.901 115.883 132.963 115.216C134.026 114.549 135.239 114.216 136.604 114.216C137.968 114.216 139.182 114.549 140.244 115.216C141.307 115.883 142.143 116.831 142.752 118.06C143.362 119.289 143.666 120.747 143.666 122.435ZM141.791 122.435C141.791 121.049 141.559 119.88 141.096 118.927C140.638 117.974 140.015 117.253 139.229 116.763C138.447 116.273 137.572 116.029 136.604 116.029C135.635 116.029 134.757 116.273 133.971 116.763C133.19 117.253 132.567 117.974 132.104 118.927C131.645 119.88 131.416 121.049 131.416 122.435C131.416 123.82 131.645 124.99 132.104 125.943C132.567 126.896 133.19 127.617 133.971 128.107C134.757 128.596 135.635 128.841 136.604 128.841C137.572 128.841 138.447 128.596 139.229 128.107C140.015 127.617 140.638 126.896 141.096 125.943C141.559 124.99 141.791 123.82 141.791 122.435ZM160.424 122.435C160.424 124.122 160.119 125.581 159.51 126.81C158.901 128.039 158.065 128.987 157.002 129.654C155.94 130.32 154.726 130.654 153.362 130.654C151.997 130.654 150.783 130.32 149.721 129.654C148.658 128.987 147.822 128.039 147.213 126.81C146.604 125.581 146.299 124.122 146.299 122.435C146.299 120.747 146.604 119.289 147.213 118.06C147.822 116.831 148.658 115.883 149.721 115.216C150.783 114.549 151.997 114.216 153.362 114.216C154.726 114.216 155.94 114.549 157.002 115.216C158.065 115.883 158.901 116.831 159.51 118.06C160.119 119.289 160.424 120.747 160.424 122.435ZM158.549 122.435C158.549 121.049 158.317 119.88 157.854 118.927C157.395 117.974 156.773 117.253 155.986 116.763C155.205 116.273 154.33 116.029 153.362 116.029C152.393 116.029 151.515 116.273 150.729 116.763C149.947 117.253 149.325 117.974 148.862 118.927C148.403 119.88 148.174 121.049 148.174 122.435C148.174 123.82 148.403 124.99 148.862 125.943C149.325 126.896 149.947 127.617 150.729 128.107C151.515 128.596 152.393 128.841 153.362 128.841C154.33 128.841 155.205 128.596 155.986 128.107C156.773 127.617 157.395 126.896 157.854 125.943C158.317 124.99 158.549 123.82 158.549 122.435ZM168.619 130.435H163.682V114.435H168.838C170.39 114.435 171.718 114.755 172.822 115.396C173.927 116.031 174.773 116.945 175.361 118.138C175.95 119.325 176.244 120.747 176.244 122.404C176.244 124.07 175.947 125.505 175.354 126.708C174.76 127.906 173.895 128.828 172.76 129.474C171.625 130.115 170.244 130.435 168.619 130.435ZM165.619 128.716H168.494C169.817 128.716 170.914 128.461 171.783 127.95C172.653 127.44 173.302 126.713 173.729 125.771C174.156 124.828 174.369 123.706 174.369 122.404C174.369 121.112 174.158 120 173.736 119.068C173.315 118.13 172.684 117.411 171.846 116.911C171.007 116.406 169.963 116.154 168.713 116.154H165.619V128.716Z" fill="black"/>
<path d="M64.9688 148.712V140.712H67.6719C68.2969 140.712 68.8099 140.819 69.2109 141.032C69.612 141.243 69.9089 141.533 70.1016 141.903C70.2943 142.273 70.3906 142.694 70.3906 143.165C70.3906 143.636 70.2943 144.054 70.1016 144.419C69.9089 144.783 69.6133 145.07 69.2148 145.278C68.8164 145.484 68.3073 145.587 67.6875 145.587H65.5V144.712H67.6563C68.0833 144.712 68.4271 144.649 68.6875 144.524C68.9505 144.399 69.1406 144.222 69.2578 143.993C69.3776 143.761 69.4375 143.485 69.4375 143.165C69.4375 142.845 69.3776 142.565 69.2578 142.325C69.138 142.085 68.9466 141.901 68.6836 141.77C68.4206 141.638 68.0729 141.571 67.6406 141.571H65.9375V148.712H64.9688ZM68.7344 145.118L70.7031 148.712H69.5781L67.6406 145.118H68.7344ZM72.0049 148.712V140.712H76.833V141.571H72.9736V144.274H76.583V145.134H72.9736V147.852H76.8955V148.712H72.0049ZM82.9541 142.712C82.9072 142.316 82.7171 142.009 82.3838 141.79C82.0505 141.571 81.6416 141.462 81.1572 141.462C80.8031 141.462 80.4932 141.519 80.2275 141.634C79.9645 141.748 79.7588 141.906 79.6104 142.106C79.4645 142.307 79.3916 142.535 79.3916 142.79C79.3916 143.003 79.4424 143.187 79.5439 143.341C79.6481 143.492 79.7809 143.618 79.9424 143.72C80.1038 143.819 80.2731 143.901 80.4502 143.966C80.6273 144.028 80.79 144.079 80.9385 144.118L81.751 144.337C81.9593 144.391 82.1911 144.467 82.4463 144.563C82.7041 144.66 82.9502 144.791 83.1846 144.958C83.4215 145.122 83.6169 145.333 83.7705 145.591C83.9242 145.848 84.001 146.165 84.001 146.54C84.001 146.972 83.8877 147.363 83.6611 147.712C83.4372 148.061 83.109 148.338 82.6768 148.544C82.2471 148.749 81.7249 148.852 81.1104 148.852C80.5374 148.852 80.0413 148.76 79.6221 148.575C79.2054 148.39 78.8773 148.132 78.6377 147.802C78.4007 147.471 78.2666 147.087 78.2354 146.649H79.2354C79.2614 146.951 79.363 147.201 79.54 147.399C79.7197 147.595 79.9463 147.74 80.2197 147.837C80.4958 147.93 80.7926 147.977 81.1104 147.977C81.4801 147.977 81.8122 147.917 82.1064 147.798C82.4007 147.675 82.6338 147.506 82.8057 147.29C82.9775 147.071 83.0635 146.816 83.0635 146.524C83.0635 146.259 82.9893 146.042 82.8408 145.876C82.6924 145.709 82.4971 145.574 82.2549 145.47C82.0127 145.365 81.751 145.274 81.4697 145.196L80.4854 144.915C79.8604 144.735 79.3656 144.479 79.001 144.145C78.6364 143.812 78.4541 143.376 78.4541 142.837C78.4541 142.389 78.5752 141.998 78.8174 141.665C79.0622 141.329 79.3903 141.069 79.8018 140.884C80.2158 140.696 80.6781 140.602 81.1885 140.602C81.7041 140.602 82.1624 140.695 82.5635 140.88C82.9645 141.062 83.2822 141.312 83.5166 141.63C83.7536 141.947 83.8786 142.308 83.8916 142.712H82.9541ZM85.1563 141.571V140.712H91.1562V141.571H88.6406V148.712H87.6719V141.571H85.1563ZM92.0449 148.712H91.0293L93.9668 140.712H94.9668L97.9043 148.712H96.8887L94.498 141.977H94.4355L92.0449 148.712ZM92.4199 145.587H96.5137V146.446H92.4199V145.587ZM104.4 140.712H105.369V146.009C105.369 146.555 105.24 147.044 104.982 147.473C104.727 147.901 104.367 148.238 103.9 148.485C103.434 148.73 102.887 148.852 102.26 148.852C101.632 148.852 101.085 148.73 100.619 148.485C100.153 148.238 99.791 147.901 99.5332 147.473C99.278 147.044 99.1504 146.555 99.1504 146.009V140.712H100.119V145.93C100.119 146.321 100.205 146.669 100.377 146.973C100.549 147.276 100.794 147.514 101.111 147.688C101.432 147.86 101.814 147.946 102.26 147.946C102.705 147.946 103.088 147.86 103.408 147.688C103.729 147.514 103.973 147.276 104.143 146.973C104.314 146.669 104.4 146.321 104.4 145.93V140.712ZM106.866 141.571V140.712H112.866V141.571H110.351V148.712H109.382V141.571H106.866ZM113.755 148.712H112.739L115.677 140.712H116.677L119.614 148.712H118.599L116.208 141.977H116.146L113.755 148.712ZM114.13 145.587H118.224V146.446H114.13V145.587ZM127.204 140.712V148.712H126.267L121.907 142.43H121.829V148.712H120.86V140.712H121.798L126.173 147.009H126.251V140.712H127.204ZM128.705 141.571V140.712H134.705V141.571H132.189V148.712H131.221V141.571H128.705Z" fill="black"/>
</svg>
